# xmcd CD database file
#
# Track frame offsets:
#	150
#	20056
#	37493
#	57828
#	70150
#	86226
#	96044
#	114283
#	133893
#	154199
#	175224
#	194742
#	212867
#	222642
#	242875
#
# Disc length: 3270 seconds
#
# Revision: 0
# Processed by: cddbd v1.5.2PL0 Copyright (c) Steve Scherf et al.
# Submitted via: CDex 1.50
#
DISCID=ef0cc40f
DTITLE=Anis - La Chance ...
DYEAR=2005
DGENRE=Rhythmic Soul
TTITLE0=Avec le vent
TTITLE1=Bistro
TTITLE2=Mon métro
TTITLE3=Cergy
TTITLE4=Intégration
TTITLE5=J'aurais voulu être un MC
TTITLE6=Peut-être bien
TTITLE7=Pensées amères - Intro
TTITLE8=Pensées amères
TTITLE9=Louise et Thelma
TTITLE10=Oisif
TTITLE11=La preuve par 1000 (Mahlich Boy)
TTITLE12=Le sommeil
TTITLE13=Nobody knows you
TTITLE14=Reggablues
EXTD=YEAR: 2005
EXTT0=
EXTT1=
EXTT2=
EXTT3=
EXTT4=
EXTT5=
EXTT6=
EXTT7=
EXTT8=
EXTT9=
EXTT10=
EXTT11=
EXTT12=
EXTT13=
EXTT14=
PLAYORDER=
